<?xml version="1.0"?>
<svg xmlns="http://www.w3.org/2000/svg" id="Capa_1" enable-background="new 0 0 512 512" height="512px" viewBox="0 0 512 512" width="512px"><g><g><path d="m10 476h492c5.522 0 10-4.477 10-10s-4.478-10-10-10h-86v-70h69.07c3.646 0 7.004-1.985 8.762-5.18s1.637-7.093-.315-10.173l-47.31-74.647h22.353c3.646 0 7.004-1.985 8.762-5.18s1.637-7.093-.315-10.173l-47.311-74.647h22.363c3.646 0 7.004-1.985 8.762-5.18s1.637-7.093-.315-10.173l-13.954-22.015c-2.956-4.664-9.132-6.05-13.8-3.093-4.665 2.957-6.05 9.135-3.093 13.8l4.223 6.662h-22.362c-3.646 0-7.004 1.985-8.762 5.18s-1.637 7.093.315 10.173l47.31 74.646h-22.353c-3.646 0-7.004 1.985-8.762 5.18s-1.637 7.093.315 10.173l47.311 74.647h-77.312l-63.374-100h22.353c3.646 0 7.004-1.985 8.762-5.18s1.637-7.094-.315-10.173l-47.312-74.647h22.363c3.646 0 7.003-1.984 8.761-5.179s1.638-7.092-.313-10.172l-3.16-4.986 38.653-60.983 5.49 8.662c2.956 4.664 9.135 6.05 13.8 3.093s6.05-9.135 3.093-13.8l-13.937-21.988c-1.834-2.894-5.02-4.647-8.446-4.647s-6.612 1.753-8.446 4.646l-42.046 66.337-61.062-96.337c-1.834-2.893-5.02-4.646-8.446-4.646s-6.612 1.753-8.446 4.646l-61.062 96.337-42.046-66.337c-1.834-2.893-5.02-4.646-8.446-4.646s-6.612 1.753-8.446 4.646l-76.06 120c-1.952 3.08-2.073 6.979-.315 10.173 1.758 3.195 5.115 5.18 8.762 5.18h22.363l-47.31 74.647c-1.952 3.08-2.073 6.979-.315 10.173s5.115 5.181 8.761 5.181h22.353l-47.31 74.647c-1.952 3.08-2.073 6.979-.315 10.173s5.115 5.18 8.762 5.18h69.07v70h-86c-5.522 0-10 4.477-10 10s4.478 10 10 10zm206.027-90-.024 70h-40.003v-70zm19.973 0h40v70h-40.024zm100 70h-40v-70h40zm60 0h-40v-70h40zm-140-391.321 57.886 91.321h-22.366c-3.646 0-7.004 1.985-8.762 5.18s-1.637 7.094.315 10.173l47.31 74.647h-22.353c-3.646 0-7.004 1.985-8.762 5.18s-1.637 7.093.315 10.173l66.321 104.647c-73.414 0-146.698 0-219.808 0l63.375-100h46.529c5.522 0 10-4.477 10-10s-4.478-10-10-10c-11.737 0-53.599 0-74.383 0l47.31-74.647c1.952-3.08 2.073-6.978.315-10.173s-5.115-5.18-8.762-5.18h-22.366zm-163.584 226.674c1.952-3.08 2.073-6.979.315-10.173s-5.115-5.18-8.761-5.18h-22.353l47.31-74.647c1.952-3.08 2.073-6.979.315-10.173s-5.115-5.18-8.762-5.18h-22.362l57.882-91.321 38.653 60.984-3.16 4.986c-1.95 3.08-2.07 6.978-.313 10.172s5.114 5.179 8.76 5.179h22.363l-47.31 74.647c-1.952 3.08-2.073 6.978-.315 10.173s5.115 5.18 8.762 5.18h22.353l-63.374 100h-77.313zm63.584 94.647v70h-40v-70z" data-original="#000000" class="active-path" data-old_color="#000000" fill="#00AF80"/><circle cx="414" cy="136" r="10" data-original="#000000" class="active-path" data-old_color="#000000" fill="#00AF80"/></g></g> </svg>
