<?xml version="1.0"?>
<svg xmlns="http://www.w3.org/2000/svg" id="Capa_1" enable-background="new 0 0 512 512" height="512px" viewBox="0 0 512 512" width="512px"><g><g><path d="m281.032 134.576-48.715 7.078-3.523 18.592 33.338 32.497-8.234 48.006 16.128 9.807 41.588-21.863 41.538 21.838 16.185-9.723-8.243-48.066 33.264-32.424-3.325-18.647-48.838-7.096-21.197-42.945-18.806.071zm41.211 27.46 23.769 3.453-17.199 16.765 4.06 23.674-21.259-11.176-21.261 11.177 4.061-23.674-17.199-16.765 23.769-3.454 10.63-21.539z" data-original="#000000" class="active-path" data-old_color="#000000" fill="#5F7D95"/><path d="m406.968 399.872c-.813 0-1.623.018-2.433.052-.499-.861-1.024-1.703-1.562-2.534 4.374-3.746 8.637-7.657 12.753-11.773 42.666-42.667 66.164-99.392 66.164-159.727 0-10.871-.856-22.11-2.543-33.406l-1.913-12.802h-26.565l-1.967 12.727c-10.401 67.29-69.688 118.033-137.906 118.033-76.947 0-139.548-62.601-139.548-139.548 0-68.229 50.742-127.515 118.03-137.906l12.729-1.966v-26.565l-12.801-1.913c-11.294-1.688-22.533-2.544-33.406-2.544-60.334 0-117.06 23.498-159.727 66.165-42.666 42.666-66.164 99.392-66.164 159.726 0 59.84 23.125 116.121 65.129 158.666-26.58 8.222-45.945 33.029-45.945 62.278 0 17.406 6.778 33.77 19.087 46.079 12.308 12.308 28.672 19.086 46.08 19.086l293.746-.021c14.958 0 28.854-6.033 39.128-16.987 9.914-10.569 15.373-24.555 15.373-39.382 0-30.734-25.004-55.738-55.739-55.738zm-198.657-363.957c-9.294 7.075-17.899 15.138-25.639 24.09-26.611 30.775-41.266 70.157-41.266 110.89 0 93.513 76.078 169.591 169.591 169.591 40.732 0 80.112-14.655 110.886-41.267 8.955-7.744 17.019-16.351 24.096-25.649-10.327 41.137-33.718 77.128-65.469 103.341-8.412-4.401-17.945-6.844-27.958-6.844-18.925 0-36.511 8.863-47.78 23.624h-30.702c-10.203-15.802-27.742-25.569-47.07-25.569-1.242 0-2.48.041-3.714.123-10.661-22.181-33.113-36.73-58.673-36.73-21.634 0-40.835 10.598-52.697 26.869-32.119-34.895-51.763-81.44-51.763-132.495 0-91.544 63.142-168.622 148.158-189.974zm199.894 446.021-293.746.021c-9.382 0-18.201-3.653-24.835-10.287s-10.287-15.454-10.287-24.835c0-19.372 15.756-35.132 35.122-35.132h15.022v-15.022c0-19.367 15.76-35.122 35.132-35.122 16.471 0 30.545 11.204 34.229 27.246l3.759 16.374 15.853-5.56c2.749-.964 5.625-1.453 8.547-1.453 10.632 0 20.098 6.367 24.118 16.222l3.813 9.347h66.904l4.262-7.863c5.27-9.722 15.406-15.761 26.455-15.761 13.17 0 24.691 8.422 28.669 20.956l4.447 14.011 14.104-4.142c2.305-.677 4.727-1.02 7.197-1.02 14.168 0 25.695 11.526 25.695 25.695-.001 14.761-10.744 26.325-24.46 26.325z" data-original="#000000" class="active-path" data-old_color="#000000" fill="#5F7D95"/></g></g> </svg>
