<?xml version="1.0"?>
<svg xmlns="http://www.w3.org/2000/svg" id="Capa_1" enable-background="new 0 0 512 512" height="512px" viewBox="0 0 512 512" width="512px"><g><g><circle cx="256" cy="396" r="10" data-original="#000000" class="active-path" data-old_color="#000000" fill="#000000"/><path d="m503.354 246.092c-.505-.069-50.625-7.376-59.482-40.432-8.857-33.057 30.895-64.444 31.284-64.747 3.961-3.061 5.049-8.578 2.546-12.913-2.502-4.335-7.825-6.149-12.456-4.252-.471.194-47.388 19.047-71.714-5.28-24.199-24.199-5.467-71.257-5.281-71.714 1.9-4.631.083-9.953-4.251-12.456s-9.853-1.415-12.913 2.546c-.311.402-31.518 40.183-64.747 31.284-33.057-8.857-40.363-58.978-40.433-59.482-.676-4.953-4.907-8.646-9.907-8.646-5.005 0-9.24 3.701-9.91 8.661-.068.505-7.199 50.563-40.43 59.467-33.053 8.858-64.444-30.895-64.747-31.284-3.061-3.96-8.579-5.05-12.913-2.546-4.335 2.503-6.152 7.825-4.251 12.456.193.471 19.046 47.387-5.281 71.714-24.201 24.199-71.257 5.466-71.714 5.28-4.626-1.897-9.935-.082-12.441 4.243s-1.427 9.842 2.519 12.912c.402.313 40.154 31.7 31.297 64.757-8.859 33.056-58.979 40.362-59.467 40.43-4.955.669-8.645 4.896-8.653 9.895-.008 5 3.685 9.238 8.637 9.924.505.069 50.625 7.376 59.482 40.432 8.857 33.057-30.895 64.444-31.284 64.747-3.961 3.061-5.049 8.578-2.546 12.913 2.502 4.334 7.826 6.15 12.456 4.252.471-.194 47.388-19.047 71.714 5.28 24.199 24.199 5.467 71.257 5.281 71.714-1.9 4.631-.083 9.953 4.251 12.456 4.336 2.504 9.853 1.416 12.913-2.546.311-.403 31.513-40.188 64.747-31.284 33.057 8.857 40.363 58.978 40.43 59.467.67 4.96 4.905 8.661 9.91 8.661s9.24-3.701 9.91-8.661c.068-.505 7.199-50.563 40.43-59.467 33.053-8.857 64.443 30.895 64.747 31.284 3.061 3.96 8.578 5.05 12.913 2.546 4.335-2.503 6.152-7.825 4.251-12.456-.193-.471-19.046-47.387 5.281-71.714 24.199-24.2 71.257-5.467 71.714-5.28 4.625 1.896 9.934.082 12.441-4.243s1.427-9.842-2.519-12.912c-.402-.313-40.154-31.7-31.297-64.757 8.857-33.056 58.977-40.362 59.466-40.43 4.955-.669 8.645-4.896 8.653-9.895.01-5-3.683-9.239-8.636-9.924zm-78.8 55.072c-6.294 23.49 3.332 44.952 14.525 60.537-19.091-1.901-42.495.495-59.689 17.688-17.196 17.196-19.59 40.597-17.689 59.689-15.584-11.191-37.048-20.821-60.537-14.525-23.49 6.294-37.263 25.362-45.164 42.848-7.9-17.485-21.674-36.554-45.164-42.848-5.155-1.381-10.205-1.995-15.124-1.995-17.497 0-33.249 7.785-45.414 16.521 1.901-19.093-.493-42.494-17.689-59.69-17.196-17.195-40.599-19.593-59.689-17.688 11.193-15.585 20.82-37.047 14.525-60.537s-25.361-37.264-42.847-45.164c17.486-7.9 36.553-21.674 42.848-45.164s-3.332-44.952-14.525-60.537c19.092 1.901 42.495-.494 59.689-17.688 17.196-17.196 19.59-40.597 17.689-59.689 15.584 11.19 37.046 20.82 60.537 14.525s37.264-25.363 45.164-42.848c7.9 17.485 21.674 36.554 45.164 42.848 5.155 1.381 10.205 1.995 15.124 1.995 17.497-.002 33.249-7.785 45.414-16.521-1.901 19.093.493 42.494 17.689 59.69 17.196 17.195 40.599 19.595 59.689 17.688-11.193 15.585-20.82 37.047-14.525 60.537s25.361 37.264 42.847 45.164c-17.486 7.9-36.553 21.674-42.848 45.164z" data-original="#000000" class="active-path" data-old_color="#000000" fill="#000000"/><path d="m256 106c-82.71 0-150 67.29-150 150 0 64.546 41.151 121.716 102.399 142.259 5.235 1.759 10.905-1.064 12.661-6.301 1.756-5.235-1.065-10.904-6.301-12.66-53.09-17.808-88.759-67.358-88.759-123.298 0-71.683 58.318-130 130-130s130 58.317 130 130c0 55.94-35.669 105.49-88.759 123.298-5.236 1.756-8.057 7.425-6.301 12.66 1.403 4.182 5.3 6.823 9.479 6.823 1.054 0 2.127-.168 3.182-.522 61.248-20.543 102.399-77.713 102.399-142.259 0-82.71-67.29-150-150-150z" data-original="#000000" class="active-path" data-old_color="#000000" fill="#000000"/></g></g> </svg>
