<?xml version="1.0"?>
<svg xmlns="http://www.w3.org/2000/svg" xmlns:xlink="http://www.w3.org/1999/xlink" version="1.1" id="Layer_1" x="0px" y="0px" viewBox="0 0 512 512" style="enable-background:new 0 0 512 512;" xml:space="preserve" width="512px" height="512px"><g><g>
	<g>
		<g>
			<path d="M305.111,346.198c-3.68-3.03-9.118-2.502-12.148,1.176L186.635,476.485l48.047-126.806     c1.004-2.652,0.643-5.628-0.969-7.961c-1.61-2.333-4.265-3.726-7.101-3.726h-51.594l59.54-113.516     c1.403-2.674,1.305-5.888-0.258-8.473s-4.364-4.164-7.384-4.164h-86.188l99.982-194.581h64.029c4.765,0,8.629-3.864,8.629-8.629     c0-4.765-3.864-8.629-8.629-8.629H238.13c-4.908,0-9.35,2.713-11.591,7.077L122.214,210.109c-2.059,4.01-1.88,8.892,0.472,12.749     c2.353,3.847,6.614,6.238,11.123,6.238h78.839l-56.155,107.061c-2.11,4.016-1.96,8.921,0.388,12.805     c2.346,3.879,6.617,6.287,11.149,6.287h46.087l-52.652,138.965c-2.349,5.991-0.028,12.711,5.515,15.978     c2.004,1.183,4.292,1.808,6.615,1.808c3.894,0,7.55-1.717,10.049-4.732l122.645-148.923     C309.317,354.666,308.789,349.229,305.111,346.198z" data-original="#000000" class="active-path" data-old_color="#000000" fill="#FFB229"/>
			<path d="M389.61,119.324c-2.288-4.175-6.668-6.769-11.43-6.769h-54.437L377.957,19.6c2.345-4.02,2.361-9.024,0.046-13.053     C375.688,2.509,371.357,0,366.699,0h-32.846c-4.765,0-8.629,3.864-8.629,8.629c0,4.765,3.864,8.629,8.629,8.629h25.491     l-58.076,99.577c-1.556,2.67-1.567,5.966-0.028,8.645c1.539,2.679,4.392,4.332,7.483,4.332h61.746l-84.869,132.908     c-1.697,2.657-1.81,6.026-0.294,8.79c1.514,2.765,4.416,4.483,7.568,4.483h58.88l-41.389,50.256     c-3.03,3.679-2.502,9.117,1.176,12.148c1.607,1.323,3.55,1.967,5.481,1.967c2.491,0,4.961-1.072,6.667-3.143l47.043-57.122     c3.213-3.867,3.911-9.309,1.775-13.864c-2.137-4.556-6.767-7.5-11.798-7.5h-52.085l80.542-126.132     C391.727,128.594,391.898,123.508,389.61,119.324z" data-original="#000000" class="active-path" data-old_color="#000000" fill="#FFB229"/>
		</g>
	</g>
</g></g> </svg>
