<?xml version="1.0" standalone="no"?>
<!DOCTYPE svg PUBLIC "-//W3C//DTD SVG 20010904//EN"
 "http://www.w3.org/TR/2001/REC-SVG-20010904/DTD/svg10.dtd">
<svg version="1.0" xmlns="http://www.w3.org/2000/svg"
 width="700.000000pt" height="700.000000pt" viewBox="0 0 700.000000 700.000000"
 preserveAspectRatio="xMidYMid meet">
<metadata>
Created by potrace 1.11, written by Peter Selinger 2001-2013
</metadata>
<g transform="translate(0.000000,700.000000) scale(0.100000,-0.100000)"
fill="#000000" stroke="none">
<path d="M2370 6549 c-126 -14 -279 -49 -420 -95 -806 -265 -1381 -998 -1450
-1848 -6 -74 -10 -451 -10 -880 l0 -752 -36 -35 c-20 -18 -64 -70 -98 -114
-254 -326 -369 -699 -353 -1145 12 -330 107 -631 282 -895 70 -106 193 -246
251 -286 82 -56 104 -59 480 -59 308 0 348 2 403 19 122 38 214 119 274 240
l32 66 0 990 0 991 -37 76 c-49 97 -140 186 -225 218 -89 33 -156 40 -435 40
l-258 0 0 423 0 423 68 -33 c207 -103 454 -75 642 73 93 73 162 174 204 298 9
27 21 110 27 184 11 156 27 235 70 337 109 263 338 460 614 530 l98 25 1008 0
c1104 0 1067 2 1229 -60 209 -81 403 -267 495 -476 43 -96 65 -201 75 -347 15
-218 64 -331 196 -457 83 -79 184 -133 289 -155 158 -33 267 -13 458 83 4 2 7
-188 7 -422 l0 -426 -267 0 c-306 0 -381 -8 -468 -50 -80 -38 -165 -127 -208
-217 l-32 -68 0 -990 0 -990 31 -65 c57 -119 153 -203 275 -241 55 -17 95 -19
403 -19 376 0 398 3 480 59 101 70 262 281 354 466 133 266 191 545 179 865
-10 273 -67 500 -183 731 -48 97 -163 264 -233 341 l-61 66 0 784 c0 487 -4
826 -11 894 -98 995 -888 1795 -1881 1903 -117 13 -2144 13 -2258 0z m1890
-594 l0 -335 -755 0 -755 0 0 335 0 335 755 0 755 0 0 -335z m-1780 -8 l0
-334 -82 -16 c-297 -58 -549 -218 -731 -462 -140 -188 -209 -386 -227 -649 -7
-114 -12 -136 -40 -192 -61 -125 -171 -188 -315 -182 -129 5 -229 69 -285 183
-24 47 -25 59 -24 215 0 138 5 185 27 290 34 160 76 287 141 425 95 200 189
336 341 494 292 303 643 482 1085 554 14 2 44 5 68 6 l42 1 0 -333z m2293 302
c715 -145 1291 -725 1436 -1444 30 -149 44 -355 28 -431 -25 -117 -108 -213
-217 -249 -73 -24 -189 -18 -255 15 -115 56 -173 149 -186 299 -29 327 -86
497 -237 701 -175 238 -456 412 -739 460 l-73 12 0 335 0 336 72 -7 c40 -4
117 -16 171 -27z m-4043 -3683 c0 -225 1 -234 23 -267 52 -79 141 -87 209 -19
l38 38 0 241 0 241 163 0 c152 0 167 -2 207 -23 30 -16 51 -37 67 -67 l23 -43
0 -909 c0 -993 3 -949 -59 -1001 -49 -41 -92 -48 -251 -45 l-145 3 -5 240 c-5
261 -8 272 -63 305 -64 39 -154 15 -189 -51 -16 -30 -18 -60 -18 -265 0 -271
2 -268 -99 -157 -204 221 -333 539 -350 853 -16 309 29 551 144 782 69 137
179 291 254 355 50 44 51 41 51 -211z m5268 -808 l-3 -1043 -145 -3 c-159 -3
-202 4 -251 45 -62 52 -59 8 -59 1000 0 899 0 907 21 950 13 28 35 52 62 68
40 24 49 25 210 25 l167 0 -2 -1042z m323 1019 c75 -64 185 -218 254 -355 115
-231 160 -473 144 -782 -17 -314 -142 -620 -347 -849 -33 -38 -70 -71 -81 -74
l-21 -5 0 1044 c0 829 3 1044 13 1044 6 0 24 -10 38 -23z"/>
<path d="M832 1889 c-143 -30 -130 -246 17 -266 84 -11 151 50 151 140 0 40
-5 53 -32 83 -36 39 -84 54 -136 43z"/>
<path d="M3433 2321 c-27 -17 -63 -81 -218 -392 -103 -204 -190 -368 -193
-365 -4 4 -63 91 -132 194 -97 145 -133 191 -160 204 -31 16 -67 18 -285 18
-218 0 -254 -2 -285 -18 -73 -36 -100 -123 -60 -189 39 -65 51 -68 288 -71
l214 -3 172 -262 c95 -144 182 -267 193 -274 43 -25 86 -25 133 -1 45 23 46
25 226 383 l182 359 181 -361 181 -361 44 -22 c52 -25 103 -20 142 14 14 11
98 134 188 271 l163 250 214 5 c229 5 238 7 283 61 20 23 26 42 26 76 0 59
-25 99 -77 124 -39 19 -57 20 -300 17 -245 -3 -259 -4 -288 -25 -16 -11 -84
-104 -150 -206 -66 -102 -122 -186 -125 -186 -3 -1 -87 162 -187 362 -99 199
-193 373 -207 386 -36 34 -118 40 -163 12z"/>
</g>
</svg>
